<svg xmlns="http://www.w3.org/2000/svg" viewBox="0 0 64 64" width="64" height="64">
  <circle cx="32" cy="32" r="30" fill="#1f2937" stroke="#374151" stroke-width="1"/>
  <g transform="translate(32,32)">
    <path d="M-11,-7 C-15,-11 -15,-15 -11,-17 C-7,-19 7,-19 11,-17 C15,-15 15,-11 11,-7 C11,-3 7,1 3,5 C-1,7 -5,7 -9,5 C-11,1 -11,-3 -11,-7 Z" fill="#4f46e5" opacity="0.9"/>
    <path d="M-7,-11 C-3,-13 3,-13 7,-11 C9,-9 9,-5 7,-3 C3,-1 -3,-1 -7,-3 C-9,-5 -9,-9 -7,-11 Z" fill="#6366f1" opacity="0.8"/>
    <path d="M-1.5,-5 L1.5,-8 L0,-5 L3,-1 L-1.5,3 L0,-1 L-3,-5 Z" fill="#ffffff" opacity="0.95"/>
    <circle cx="-7" cy="-5" r="1" fill="#ffffff" opacity="0.7"/>
    <circle cx="7" cy="-3" r="0.8" fill="#ffffff" opacity="0.6"/>
    <circle cx="-5" cy="3" r="0.8" fill="#ffffff" opacity="0.5"/>
    <circle cx="5" cy="1" r="1" fill="#ffffff" opacity="0.8"/>
    <line x1="-7" y1="-5" x2="-1.5" y2="-5" stroke="#ffffff" stroke-width="0.3" opacity="0.4"/>
    <line x1="7" y1="-3" x2="1.5" y2="-5" stroke="#ffffff" stroke-width="0.3" opacity="0.4"/>
    <line x1="-5" y1="3" x2="-1.5" y2="-1" stroke="#ffffff" stroke-width="0.3" opacity="0.4"/>
    <line x1="5" y1="1" x2="1.5" y2="-1" stroke="#ffffff" stroke-width="0.3" opacity="0.4"/>
  </g>
  <circle cx="32" cy="32" r="29" fill="none" stroke="#4f46e5" stroke-width="0.5" opacity="0.3"/>
</svg>